# xmcd CD database file
#
# Track frame offsets:
#	150
#	13843
#	26391
#	54890
#	67744
#	81759
#	100989
#	124495
#	156191
#	187028
#	205391
#	225576
#
# Disc length: 3298 seconds
#
# Revision: 0
# Processed by: cddbd v1.4PL0 Copyright (c) Steve Scherf et al.
# Submitted via: CDex 1.51
#
DISCID=980ce00c
DTITLE=Dan Barnett - The Right Track
DYEAR=2001
DGENRE=Jazz
TTITLE0=Get On The Right Track Baby
TTITLE1=Love Is Just Around The Corner
TTITLE2=Black Orpheus
TTITLE3=Never No Lament
TTITLE4=One Note Samba 
TTITLE5=I Ain't Got Nothin' But The Blues
TTITLE6=Chuck's First Name (for Ralph)
TTITLE7=Good Times Bad Times
TTITLE8=Five Spot After Dark
TTITLE9=My Kind of Girl
TTITLE10=I Thought About You
TTITLE11=Tain't What You Do
EXTD=YEAR: 2001
EXTT0=
EXTT1=
EXTT2=
EXTT3=
EXTT4=
EXTT5=
EXTT6=
EXTT7=
EXTT8=
EXTT9=
EXTT10=
EXTT11=
PLAYORDER=
